<?xml version="1.0" encoding="utf-8"?>
<!-- Generator: Adobe Illustrator 25.4.1, SVG Export Plug-In . SVG Version: 6.00 Build 0)  -->
<svg version="1.1" id="Layer_1" xmlns="http://www.w3.org/2000/svg" xmlns:xlink="http://www.w3.org/1999/xlink" x="0px" y="0px"
	 viewBox="0 0 1080 1080" style="enable-background:new 0 0 1080 1080;" xml:space="preserve">
<style type="text/css">
	.st0{fill:#01BCB7;}
	.st1{fill:#EAF5F7;}
</style>
<g>
	<g>
		<g>
			<path class="st0" d="M426.1,487.4c6-12,10.3-24.8,12.8-38c2.6-13.9,5.5-30.8-8.7-39.6c-4.5-2.8-10-4-15.3-3.3
				c-4.2,0.5-7.7,2.8-11.4,4.8c-6,3.2-9.3,4.9-12.8,6.2c-5.2,2-12.9,4.9-21.1,2.1c-4-1.4-6.9-3.7-8.7-5.3c1.8,0.8,4.7,1.9,8.4,2.2
				c15.2,1.2,24.3-12,36.3-18.7c8.8-4.9,19-6.9,28.7-3.9c7.9,3.3,13.3,10.8,16.6,18.4c4.2,9.6,3.9,20.1,2.6,30.2
				c-0.5,4.4-1.3,8.8-2.1,13.2c-2.1,12.3-5.8,23.1-8.4,30.7c-2.2,6.5-4.4,11.8-5.9,15.6c-0.9-2.1-2.2-4.9-4.4-7.8
				C430.5,491,428,488.8,426.1,487.4z"/>
		</g>
		<path class="st0" d="M290.4,415.5"/>
		<path class="st0" d="M401.4,576.9c-14-2.5-11-57.7-31.3-62.5c-6.6-1.6-13.1,2.8-17.8,7c1.5-2.6,5.2-8,11.6-11.1
			c8.4-4.1,17.4-2.5,23.5,1c15.3,8.9,15.5,31.7,19.4,31.2c4-0.5,10.8-25.7,0.6-39.9C399,491,386.6,497,352,487.4
			c-15.6-4.3-26-7.3-37.5-16c-1.9-1.4-5-3.7-8.4-6.8c0.4,11.3,2.1,27.7,7.8,46.7c6.9,22.8,19.4,47.8,26.9,46.3
			c6.1-1.2,4.2-18.7,18.4-28c3.3-2.2,6.5-3.2,8.6-3.7c-1.3,1-3.2,2.6-4.8,5c-1.7,2.6-2.2,5.1-2.8,8.1c-1.2,6.3-1.5,9.7-2,12.5
			c-1,6.3-2.6,17-10,22c-1.5,1-3.1,1.9-4.9,2.3c-4.3,1-9.2-1.4-12.8-3.6c-4.1-2.5-7.3-5.8-10.3-9.6c-3-3.7-5.7-7.6-8.2-11.7
			c-3.2-5.2-5.9-10.6-8.4-16.1c-3-6.7-5.6-13.6-7.8-20.6c-2.6-8.2-4.6-16.6-6.1-25.1c-1.5-8.2-2.5-16.4-3.2-24.7
			c-0.7-9-1.3-22.5-0.3-39c0.2-3.8,1.5-17.7,11.6-25.6c7.4-5.8,17-6.7,24.1-4.2c2.4,0.8,6.9,4.1,16,10.7c7.9,5.7,6.9,5.3,10.3,7.7
			c13.6,9.3,19.9,11.4,25.5,12.1c5.7,0.7,10.5,0.1,13.6-0.6c-2.3,1.9-6.1,4.5-11.1,6.2c-9.5,3.1-17.4,0.8-20.4-0.1
			c-5.5-1.7-9.8-4.4-11.9-5.8c-4.3-3-6.9-5.5-12.8-8.7c-1.3-0.7-2.9-1.4-4.8-2c-3.4-1.1-10.9-3.5-16,0.7c-5.1,4.2-5.7,13.3-4.7,19.4
			c3.5,21,30.8,31.1,37.5,33.6c4.4,1.7,9.1,2.7,18.5,4.8c22.6,5,26.7,3.3,36.5,6.7c4.5,1.6,23.5,8.1,31,24.3
			C442.4,533.2,414.5,579.3,401.4,576.9z"/>
	</g>
</g>
<g>
	<g>
		<path class="st1" d="M534.5,423.6h-18.3v49.6H502v-49.6h-18.3v-11.8h50.7V423.6z"/>
		<path class="st1" d="M538.6,450.7c0-14.1,9.9-23.4,24.7-23.4c14.7,0,24.6,9.3,24.6,23.4c0,14-9.9,23.4-24.6,23.4
			C548.5,474.1,538.6,464.7,538.6,450.7z M573.7,450.7c0-7.6-4.2-12.6-10.5-12.6s-10.4,5-10.4,12.6c0,7.6,4.2,12.6,10.4,12.6
			S573.7,458.2,573.7,450.7z"/>
		<path class="st1" d="M594.1,450.7c0-14.1,9.9-23.4,24.7-23.4c14.7,0,24.6,9.3,24.6,23.4c0,14-9.9,23.4-24.6,23.4
			C603.9,474.1,594.1,464.7,594.1,450.7z M629.2,450.7c0-7.6-4.2-12.6-10.5-12.6s-10.4,5-10.4,12.6c0,7.6,4.2,12.6,10.4,12.6
			S629.2,458.2,629.2,450.7z"/>
		<path class="st1" d="M682.1,463v10c-3.9,0.7-7.6,1.1-10.6,1.1c-9.9,0-16.4-6.3-16.4-15.8v-20.5h-6.6v-9.7h6.6v-9.3l13.8-3.9v13.2
			h12.9v9.7h-12.9v18.3c0,4.3,2.8,7.1,7.1,7.1C678,463.3,680.1,463.1,682.1,463z"/>
		<path class="st1" d="M734.7,445.2v28.1h-13.8v-26.9c0-5.6-2.9-8.3-8.6-8.3c-3.2,0-5.9,0.9-8.8,2.6v32.6h-13.8v-61.8l13.8-4v23.1
			c4.8-2.2,9.9-3.3,14.4-3.3C728.4,427.3,734.7,432.8,734.7,445.2z"/>
		<path class="st1" d="M543.2,555.8c5.4,6,9.3,11.1,13.4,16.8l-13.5,4.1c-4.3-6.5-8.6-12.2-13.8-18.4c-19.8-0.1-33-12.6-33-31.5
			s13.2-31.5,33-31.5c19.7,0,32.9,12.6,32.9,31.5C562.2,540.7,555,551.2,543.2,555.8z M529.3,546.4c10.9,0,18.2-7.9,18.2-19.8
			s-7.3-19.8-18.2-19.8c-11,0-18.3,7.9-18.3,19.8S518.3,546.4,529.3,546.4z"/>
		<path class="st1" d="M613.8,557.8c-4.8,0-8.8-1-12.1-2.9c-4.7,2.1-9.8,3.2-14.2,3.2c-10.6,0-16.9-5.5-16.9-17.9v-28.1h13.8v26.9
			c0,5.6,3,8.3,8.6,8.3c2.6,0,4.7-0.6,7-1.6v-33.6h13.8V557.8z"/>
		<path class="st1" d="M666.5,539.7h-29.7c0.7,5.1,3.4,7.7,11.7,7.7c4.3,0,10.5-1,15.4-2.4v10.1c-4.6,1.8-12,3.1-18.6,3.1
			c-13.7,0-22.7-7.9-22.7-23c0-14.3,8.9-23.8,22.2-23.8c13.3,0,22.2,9,22.2,22.7C667,535.9,666.8,538.1,666.5,539.7z M636.6,530.9
			h16.3c-0.7-5.6-3.2-9.2-8.1-9.2C639.9,521.6,637.3,525.3,636.6,530.9z"/>
		<path class="st1" d="M689.1,540.7l-2.7-0.6c-7.8-1.7-12.9-4.3-12.9-13.1c0-9.9,6.7-15.7,18-15.7c5.3,0,11,1.2,14.5,2.7v9.6
			c-4.5-1.6-9.2-2.1-11.6-2.1c-5.1,0-6.9,1.2-6.9,3.1s2.3,2.7,5.7,3.4l2.7,0.6c7.6,1.7,13.1,5.2,13.1,14.4c0,9.5-6.6,15.1-17.8,15.1
			c-4.9,0-11.7-1.1-16-3.4v-9.6c4.6,1.9,9.7,2.7,13.4,2.7c4.5,0,6.2-1,6.2-3.2C694.9,542.6,692.7,541.5,689.1,540.7z"/>
		<path class="st1" d="M747.9,547v10c-3.9,0.7-7.6,1.1-10.6,1.1c-9.9,0-16.4-6.3-16.4-15.8v-20.5h-6.6v-9.7h6.6v-9.3l13.8-3.9v13.2
			h12.9v9.7h-12.9v18.3c0,4.3,2.8,7.1,7.1,7.1C743.7,547.4,745.8,547.2,747.9,547z"/>
	</g>
</g>
<g>
	<path class="st0" d="M490.5,626.3v-25.1h8.8c8.8,0,13.6,4.4,13.6,12.7c0,8.3-5.3,12.4-13.6,12.4H490.5z M498.8,623.5
		c7,0,11-2.7,11-9.6c0-6.9-3.9-9.9-11.1-9.9h-4.9v19.5H498.8z"/>
	<path class="st0" d="M519.6,619c0.4,3.1,2.5,5.3,6.4,5.3c3.8,0,6.1-2,6.1-2l0.9,2c0,0-2.5,2.5-7,2.5c-6.4,0-9.3-4.1-9.3-8.9
		c0-4.8,2.9-8.9,9.2-8.9c6.5,0,8.1,5,8.1,7.6c0,1.4-0.4,2.4-0.4,2.4H519.6z M531.1,616.7v-0.3c0-2.5-1.6-4.9-5.3-4.9
		c-3.7,0-5.8,2.2-6.2,5.2H531.1z"/>
	<path class="st0" d="M557.5,625.3c0,0-1.6,1.2-3.9,1.2c-2,0-2.8-0.9-2.8-3.2v-7.6c0-2.8-1-4-3.8-4c-2.9,0-5.1,1.8-5.9,2.5v12.1
		h-2.9v-16.1l2.9-0.9v2.5c0.3-0.4,2.7-2.8,6.5-2.8c4.1,0,6.1,2.3,6.1,6.4v7.9c0,0.7,0.3,1,0.8,1c1,0,2.4-0.5,2.4-0.5L557.5,625.3z"
		/>
	<path class="st0" d="M571.4,625.4c0,0-1.8,1.4-4.3,1.4c-3.6,0-5.7-1.7-5.7-5.6V612h-3l0.7-2.5h2.3v-4.2l2.9-0.9v5.1h6.2v2.5h-6.2
		v9.3c0,2.1,0.9,2.9,2.9,2.9c2,0,3.1-0.9,3.1-0.9L571.4,625.4z"/>
	<path class="st0" d="M594.6,625.3c0,0-1.6,1.2-3.9,1.2c-1.4,0-2.4-0.5-2.7-2c-1,0.8-3.1,2.3-5.9,2.3c-5.5,0-8.5-3.9-8.5-9
		c0-5,3.6-8.8,9.8-8.8c4.3,0,7.4,2.5,7.4,2.5v11.7c0,0.7,0.3,1,0.8,1c1,0,2.4-0.5,2.4-0.5L594.6,625.3z M587.9,612.6
		c-0.9-0.5-2.4-1.1-4.7-1.1c-4.1,0-6.6,2.5-6.6,6.3c0,4.1,2.1,6.5,6.1,6.5c2.6,0,4.3-1.3,5.2-2.2V612.6z"/>
	<path class="st0" d="M605.2,625.2c0,0-1.9,1.3-4.8,1.3c-2.1,0-3-0.9-3-3.2v-23l2.9-0.9V623c0,0.8,0.4,1.1,1.2,1.1
		c1.3,0,3.2-0.6,3.2-0.6L605.2,625.2z"/>
	<path class="st0" d="M491.8,658.6c0.4,3.1,2.5,5.3,6.4,5.3c3.8,0,6.1-2,6.1-2l0.9,2c0,0-2.5,2.5-7,2.5c-6.4,0-9.3-4.1-9.3-8.9
		c0-4.8,2.9-8.9,9.2-8.9c6.5,0,8.1,5,8.1,7.6c0,1.4-0.4,2.4-0.4,2.4H491.8z M503.3,656.3V656c0-2.5-1.6-4.9-5.3-4.9
		c-3.7,0-5.8,2.2-6.2,5.2H503.3z"/>
	<path class="st0" d="M521.9,665.9l-4.8-6.2l-4.8,6.2h-3.8l6.6-7.8l-6.8-9h3.8l5,6.7l5.1-6.7h3.8l-7,8.6l6.6,8.2H521.9z"/>
	<path class="st0" d="M549.4,664.9c0,0-1.6,1.2-3.9,1.2c-1.4,0-2.4-0.5-2.7-2c-1,0.8-3,2.3-5.8,2.3c-5.5,0-8.5-3.9-8.5-9
		c0-5,3.6-8.8,9.8-8.8c4.3,0,7.4,2.5,7.4,2.5v11.7c0,0.7,0.3,1,0.8,1c1,0,2.4-0.5,2.4-0.5L549.4,664.9z M542.7,652.2
		c-0.9-0.5-2.4-1.1-4.7-1.1c-4.1,0-6.6,2.5-6.6,6.3c0,4.1,2.1,6.5,6.1,6.5c2.6,0,4.3-1.3,5.2-2.2V652.2z"/>
	<path class="st0" d="M583.7,664.9c0,0-1.6,1.2-3.9,1.2c-2,0-2.8-0.9-2.8-3.2v-7.6c0-3-1-4.2-3.8-4.2c-2.5,0-4.5,1.4-5.5,2.3
		c0.1,0.5,0.1,1,0.1,1.6v10.9h-2.9v-10.6c0-3-1-4.2-3.8-4.2c-3,0-5.2,1.9-5.9,2.7v12.1h-2.9v-16.1l2.9-0.9v2.5
		c0.3-0.4,2.7-2.8,6.5-2.8c2.8,0,4.7,1.1,5.5,3.1c0-0.2,2.5-3.1,6.6-3.1c4.1,0,6.1,2.3,6.1,6.4v7.9c0,0.7,0.3,1,0.8,1
		c1,0,2.4-0.5,2.4-0.5L583.7,664.9z"/>
	<path class="st0" d="M599.5,652.5c0,0-2.1-1.4-5.8-1.4c-3.4,0-5.1,1.1-5.1,2.7c0,1.9,2.4,2.2,5.1,2.7c3.3,0.5,7.2,1.4,7.2,5.3
		c0,2.9-2.8,4.7-7.8,4.7c-5.1,0-7.9-2.2-7.9-2.2l1.1-2.3c0,0,2.6,1.9,6.8,1.9c3.1,0,4.8-0.9,4.8-2.2c0-1.8-1.9-2.2-4.3-2.6
		c-3.5-0.6-8-1-8-5.4c0-2.5,2.2-5.2,8-5.2c4.5,0,7,1.8,7,1.8L599.5,652.5z"/>
</g>
<circle class="st0" cx="768.4" cy="547.5" r="10.2"/>
</svg>
