<?xml version="1.0" encoding="utf-8"?>
<!-- Generator: Adobe Illustrator 25.4.1, SVG Export Plug-In . SVG Version: 6.00 Build 0)  -->
<svg version="1.1" id="Layer_1" xmlns="http://www.w3.org/2000/svg" xmlns:xlink="http://www.w3.org/1999/xlink" x="0px" y="0px"
	 viewBox="0 0 1080 1080" style="enable-background:new 0 0 1080 1080;" xml:space="preserve">
<style type="text/css">
	.st0{fill:#01BCB7;}
	.st1{fill:#ECF5F7;}
</style>
<g>
	<g>
		<g>
			<path class="st0" d="M285.9,524.4c5.3-10.6,9.1-21.9,11.3-33.6c2.3-12.3,4.9-27.2-7.7-35c-4-2.5-8.8-3.5-13.5-2.9
				c-3.7,0.5-6.8,2.5-10,4.2c-5.3,2.8-8.2,4.3-11.3,5.5c-4.6,1.8-11.4,4.3-18.7,1.8c-3.6-1.2-6.1-3.2-7.7-4.7
				c1.6,0.7,4.2,1.7,7.4,1.9c13.5,1.1,21.5-10.6,32.1-16.5c7.8-4.3,16.8-6.1,25.4-3.4c7,2.9,11.7,9.5,14.7,16.2
				c3.7,8.4,3.4,17.7,2.3,26.7c-0.5,3.9-1.2,7.8-1.8,11.6c-1.9,10.9-5.2,20.5-7.5,27.1c-2,5.8-3.9,10.5-5.3,13.8
				c-0.8-1.9-2-4.4-3.9-6.9C289.8,527.5,287.6,525.6,285.9,524.4z"/>
		</g>
		<path class="st0" d="M166,460.8"/>
		<path class="st0" d="M264.1,603.5c-12.3-2.2-9.7-51-27.7-55.3c-5.8-1.4-11.6,2.5-15.8,6.2c1.4-2.3,4.6-7,10.2-9.8
			c7.4-3.6,15.4-2.2,20.7,0.9c13.5,7.8,13.7,28.1,17.1,27.6c3.6-0.5,9.5-22.7,0.6-35.3c-7.4-10.3-18.4-5.1-48.9-13.5
			c-13.8-3.8-23-6.4-33.2-14.1c-1.7-1.3-4.4-3.3-7.4-6c0.4,10,1.8,24.5,6.9,41.2c6.1,20.2,17.1,42.2,23.8,40.9
			c5.4-1.1,3.7-16.6,16.3-24.7c2.9-1.9,5.7-2.8,7.6-3.3c-1.2,0.8-2.8,2.3-4.2,4.4c-1.5,2.3-1.9,4.5-2.5,7.1c-1.1,5.6-1.4,8.6-1.8,11
			c-0.9,5.6-2.3,15-8.9,19.4c-1.3,0.9-2.8,1.6-4.3,2c-3.8,0.8-8.2-1.3-11.3-3.1c-3.7-2.2-6.4-5.2-9.1-8.4c-2.6-3.3-5-6.7-7.2-10.3
			c-2.8-4.6-5.3-9.3-7.5-14.2c-2.7-5.9-4.9-12-6.9-18.2c-2.3-7.3-4.1-14.7-5.4-22.2c-1.3-7.2-2.2-14.5-2.8-21.8
			c-0.6-8-1.2-19.9-0.2-34.5c0.2-3.4,1.3-15.6,10.2-22.6c6.6-5.2,15-5.9,21.3-3.7c2.1,0.7,6.1,3.6,14.1,9.5c7,5.1,6.1,4.7,9.1,6.8
			c12,8.2,17.6,10.1,22.6,10.7c5,0.6,9.2,0.1,12-0.5c-2.1,1.7-5.4,4-9.8,5.4c-8.4,2.7-15.4,0.7-18.1-0.1c-4.9-1.5-8.7-3.9-10.5-5.1
			c-3.8-2.6-6.1-4.9-11.3-7.7c-1.2-0.6-2.5-1.2-4.3-1.8c-3-1-9.6-3.1-14.1,0.6c-4.5,3.7-5.1,11.8-4.1,17.2
			c3.1,18.5,27.3,27.5,33.2,29.7c3.9,1.5,8.1,2.4,16.4,4.2c20,4.4,23.6,2.9,32.3,5.9c4,1.4,20.8,7.2,27.4,21.5
			C300.3,564.8,275.6,605.6,264.1,603.5z"/>
	</g>
</g>
<g>
	<path class="st0" d="M617.2,632.7v-27.2h9.5c9.5,0,14.7,4.8,14.7,13.7s-5.7,13.4-14.7,13.4H617.2z M626,629.7
		c7.6,0,11.9-2.9,11.9-10.4c0-7.5-4.2-10.7-12-10.7h-5.3v21.1H626z"/>
	<path class="st0" d="M648.6,624.8c0.4,3.3,2.7,5.7,6.9,5.7c4.1,0,6.6-2.2,6.6-2.2l1,2.2c0,0-2.8,2.7-7.6,2.7
		c-6.9,0-10.1-4.4-10.1-9.6c0-5.2,3.1-9.7,9.9-9.7c7,0,8.8,5.4,8.8,8.2c0,1.5-0.4,2.6-0.4,2.6H648.6z M661,622.3V622
		c0-2.7-1.7-5.3-5.8-5.3c-4,0-6.2,2.4-6.7,5.6H661z"/>
	<path class="st0" d="M689.5,631.6c0,0-1.7,1.3-4.3,1.3c-2.1,0-3-1-3-3.5v-8.2c0-3.1-1.1-4.3-4.2-4.3c-3.1,0-5.5,1.9-6.4,2.7v13.1
		h-3.1v-17.4l3.1-1v2.8c0.3-0.4,2.9-3.1,7-3.1c4.4,0,6.6,2.5,6.6,6.9v8.5c0,0.7,0.3,1,0.9,1c1.1,0,2.6-0.6,2.6-0.6L689.5,631.6z"/>
	<path class="st0" d="M704.6,631.7c0,0-1.9,1.6-4.6,1.6c-3.8,0-6.2-1.8-6.2-6.1v-10h-3.3l0.8-2.7h2.5V610l3.1-1v5.5h6.7v2.7H697
		v10.1c0,2.2,1,3.2,3.1,3.2c2.1,0,3.4-1,3.4-1L704.6,631.7z"/>
	<path class="st0" d="M729.7,631.6c0,0-1.7,1.3-4.3,1.3c-1.5,0-2.6-0.6-2.9-2.2c-1,0.9-3.3,2.5-6.3,2.5c-6,0-9.2-4.2-9.2-9.8
		c0-5.4,3.9-9.5,10.5-9.5c4.6,0,8,2.7,8,2.7v12.7c0,0.7,0.3,1,0.9,1c1.1,0,2.6-0.6,2.6-0.6L729.7,631.6z M722.4,617.9
		c-1-0.6-2.6-1.2-5.1-1.2c-4.4,0-7.2,2.7-7.2,6.8c0,4.4,2.2,7.1,6.6,7.1c2.8,0,4.7-1.4,5.7-2.4V617.9z"/>
	<path class="st0" d="M741.1,631.5c0,0-2.1,1.4-5.2,1.4c-2.3,0-3.2-1-3.2-3.5v-24.9l3.1-1v25.6c0,0.9,0.4,1.2,1.3,1.2
		c1.4,0,3.4-0.7,3.4-0.7L741.1,631.5z"/>
	<path class="st0" d="M618.5,667.6c0.4,3.3,2.7,5.7,6.9,5.7c4.1,0,6.6-2.2,6.6-2.2l1,2.2c0,0-2.8,2.7-7.6,2.7
		c-6.9,0-10.1-4.4-10.1-9.6c0-5.2,3.1-9.7,9.9-9.7c7,0,8.8,5.4,8.8,8.2c0,1.5-0.4,2.6-0.4,2.6H618.5z M631,665.2v-0.3
		c0-2.7-1.7-5.3-5.8-5.3c-4,0-6.2,2.4-6.7,5.6H631z"/>
	<path class="st0" d="M651.1,675.5l-5.2-6.7l-5.2,6.7h-4.2l7.1-8.5l-7.3-9.7h4.2l5.4,7.3l5.5-7.3h4.2l-7.6,9.3l7.2,8.8H651.1z"/>
	<path class="st0" d="M680.8,674.5c0,0-1.7,1.3-4.3,1.3c-1.5,0-2.6-0.6-2.9-2.2c-1,0.9-3.3,2.5-6.3,2.5c-6,0-9.2-4.2-9.2-9.8
		c0-5.4,3.9-9.5,10.5-9.5c4.6,0,8,2.7,8,2.7v12.7c0,0.7,0.3,1,0.9,1c1.1,0,2.6-0.6,2.6-0.6L680.8,674.5z M673.5,660.7
		c-1-0.6-2.6-1.2-5.1-1.2c-4.4,0-7.2,2.7-7.2,6.8c0,4.4,2.2,7.1,6.6,7.1c2.8,0,4.7-1.4,5.7-2.4V660.7z"/>
	<path class="st0" d="M717.9,674.5c0,0-1.7,1.3-4.3,1.3c-2.1,0-3-1-3-3.5v-8.2c0-3.2-1.1-4.5-4.2-4.5c-2.8,0-4.9,1.5-6,2.5
		c0.1,0.5,0.2,1.1,0.2,1.7v11.8h-3.1v-11.4c0-3.2-1.1-4.5-4.2-4.5c-3.3,0-5.6,2.1-6.4,2.9v13.1h-3.1v-17.4l3.1-1v2.8
		c0.3-0.4,2.9-3.1,7-3.1c3,0,5,1.2,6,3.4c0-0.2,2.8-3.4,7.1-3.4c4.4,0,6.6,2.5,6.6,6.9v8.5c0,0.7,0.3,1,0.9,1c1.1,0,2.6-0.6,2.6-0.6
		L717.9,674.5z"/>
	<path class="st0" d="M734.9,661.1c0,0-2.2-1.5-6.3-1.5c-3.6,0-5.5,1.2-5.5,2.9c0,2.1,2.6,2.4,5.5,2.9c3.6,0.6,7.8,1.6,7.8,5.8
		c0,3.1-3,5-8.4,5c-5.5,0-8.5-2.3-8.5-2.3l1.2-2.4c0,0,2.8,2.1,7.3,2.1c3.3,0,5.2-1,5.2-2.3c0-1.9-2.1-2.4-4.7-2.8
		c-3.8-0.7-8.6-1.1-8.6-5.8c0-2.8,2.4-5.6,8.6-5.6c4.8,0,7.6,1.9,7.6,1.9L734.9,661.1z"/>
</g>
<circle class="st0" cx="905.3" cy="557.8" r="12.9"/>
<g>
	<path class="st1" d="M400.2,517.8h-18.9v51.4h-14.7v-51.4h-18.9v-12.2h52.5V517.8z"/>
	<path class="st1" d="M404.5,545.8c0-14.6,10.2-24.2,25.6-24.2c15.2,0,25.5,9.6,25.5,24.2c0,14.5-10.2,24.2-25.5,24.2
		C414.7,570.1,404.5,560.3,404.5,545.8z M440.9,545.8c0-7.9-4.4-13.1-10.8-13.1s-10.7,5.2-10.7,13.1c0,7.8,4.3,13.1,10.7,13.1
		S440.9,553.6,440.9,545.8z"/>
	<path class="st1" d="M462,545.8c0-14.6,10.2-24.2,25.6-24.2c15.2,0,25.5,9.6,25.5,24.2c0,14.5-10.2,24.2-25.5,24.2
		C472.2,570.1,462,560.3,462,545.8z M498.3,545.8c0-7.9-4.4-13.1-10.8-13.1c-6.4,0-10.7,5.2-10.7,13.1c0,7.8,4.3,13.1,10.7,13.1
		C493.9,558.9,498.3,553.6,498.3,545.8z"/>
	<path class="st1" d="M553.2,558.5v10.4c-4,0.8-7.9,1.1-11,1.1c-10.2,0-17-6.5-17-16.3v-21.2h-6.9v-10.1h6.9v-9.6l14.3-4v13.7h13.3
		v10.1h-13.3v19c0,4.5,2.9,7.4,7.3,7.4C548.9,558.9,551,558.7,553.2,558.5z"/>
	<path class="st1" d="M607.6,540.1v29.1h-14.3v-27.9c0-5.8-3-8.6-8.9-8.6c-3.4,0-6.1,0.9-9.1,2.7v33.8H561v-64l14.3-4.1V525
		c5-2.2,10.2-3.4,15-3.4C601.2,521.6,607.6,527.2,607.6,540.1z"/>
	<path class="st1" d="M665,567.6c5.6,6.2,9.6,11.5,13.8,17.4l-14,4.2c-4.5-6.7-8.9-12.6-14.3-19.1c-20.6-0.1-34.1-13.1-34.1-32.7
		c0-19.6,13.7-32.7,34.2-32.7c20.4,0,34,13.1,34,32.7C684.6,551.9,677.2,562.8,665,567.6z M650.6,557.9c11.3,0,18.8-8.2,18.8-20.5
		c0-12.3-7.6-20.5-18.8-20.5c-11.4,0-19,8.2-19,20.5C631.6,549.7,639.2,557.9,650.6,557.9z"/>
	<path class="st1" d="M738.1,569.7c-5,0-9.1-1-12.6-3c-4.9,2.1-10.1,3.4-14.7,3.4c-11,0-17.5-5.7-17.5-18.6v-29.1h14.3v27.9
		c0,5.8,3.1,8.6,8.9,8.6c2.7,0,4.9-0.6,7.2-1.6v-34.8h14.3V569.7z"/>
	<path class="st1" d="M792.7,550.9h-30.8c0.8,5.3,3.5,8,12.1,8c4.5,0,10.9-1,15.9-2.5v10.5c-4.7,1.9-12.5,3.2-19.3,3.2
		c-14.2,0-23.6-8.2-23.6-23.8c0-14.8,9.2-24.7,23-24.7c13.8,0,23,9.4,23,23.5C793.2,547,793,549.3,792.7,550.9z M761.8,541.8h16.9
		c-0.8-5.8-3.4-9.5-8.3-9.5C765.1,532.2,762.5,536,761.8,541.8z"/>
	<path class="st1" d="M816.1,552l-2.8-0.6c-8.1-1.7-13.3-4.5-13.3-13.6c0-10.2,7-16.3,18.7-16.3c5.5,0,11.4,1.2,15,2.8v10
		c-4.6-1.6-9.5-2.1-12-2.1c-5.2,0-7.1,1.3-7.1,3.2s2.4,2.8,5.9,3.5l2.8,0.6c7.8,1.8,13.6,5.4,13.6,14.9c0,9.9-6.9,15.6-18.4,15.6
		c-5.1,0-12.1-1.1-16.6-3.5v-10c4.7,2,10.1,2.8,13.9,2.8c4.6,0,6.4-1,6.4-3.3C822.1,553.9,819.8,552.8,816.1,552z"/>
	<path class="st1" d="M877,558.5v10.4c-4,0.8-7.9,1.1-11,1.1c-10.2,0-17-6.5-17-16.3v-21.2h-6.9v-10.1h6.9v-9.6l14.3-4v13.7h13.3
		v10.1h-13.3v19c0,4.5,2.9,7.4,7.3,7.4C872.7,558.9,874.8,558.7,877,558.5z"/>
</g>
</svg>
